<svg width="86" height="30" viewBox="0 0 86 30" fill="none" xmlns="http://www.w3.org/2000/svg">
<path d="M6 15L15 8L24 15V26C24 26.5304 23.7893 27.0391 23.4142 27.4142C23.0391 27.7893 22.5304 28 22 28H8C7.46957 28 6.96086 27.7893 6.58579 27.4142C6.21071 27.0391 6 26.5304 6 26V15Z" fill="white" stroke="white" stroke-width="2" stroke-linecap="round" stroke-linejoin="round"/>
<path d="M2.5 13L13.7506 3.99951C14.481 3.41516 15.519 3.41516 16.2494 3.99951L27.5 13" stroke="white" stroke-width="2"/>
<path d="M19.334 24H17.7812C17.8633 23.0117 17.9043 22.0508 17.9043 21.1172C17.9043 20.418 17.8145 19.9609 17.6348 19.7461C17.4551 19.5312 17.168 19.4238 16.7734 19.4238C16.457 19.4238 16.123 19.5391 15.7715 19.7695C15.7559 20.2578 15.748 20.6953 15.748 21.082C15.748 21.7344 15.7598 22.707 15.7832 24H14.2129C14.2988 22.9297 14.3418 21.8887 14.3418 20.877C14.3418 20.3535 14.2676 19.9805 14.1191 19.7578C13.9746 19.5352 13.6719 19.4238 13.2109 19.4238C12.7852 19.4238 12.4316 19.5664 12.1504 19.8516C12.1699 21.3984 12.1797 22.7812 12.1797 24H10.6035C10.6738 22.7812 10.709 21.8203 10.709 21.1172C10.709 20.2031 10.6133 19.3223 10.4219 18.4746L11.9219 18.3105L12.0215 18.9316H12.1152C12.623 18.4707 13.1953 18.2402 13.832 18.2402C14.6289 18.2402 15.1895 18.4707 15.5137 18.9316H15.6074C16.1855 18.4707 16.7578 18.2402 17.3242 18.2402C17.9883 18.2402 18.4883 18.3848 18.8242 18.6738C19.1641 18.959 19.334 19.4785 19.334 20.2324C19.334 20.3066 19.3301 20.4492 19.3223 20.6602C19.3145 20.8672 19.3105 21.0078 19.3105 21.082C19.3105 21.7344 19.3184 22.707 19.334 24Z" fill="#2B32B2"/>
<path d="M54.4453 22H52.375C52.4844 20.6823 52.5391 19.401 52.5391 18.1562C52.5391 17.224 52.4193 16.6146 52.1797 16.3281C51.9401 16.0417 51.5573 15.8984 51.0312 15.8984C50.6094 15.8984 50.1641 16.0521 49.6953 16.3594C49.6745 17.0104 49.6641 17.5938 49.6641 18.1094C49.6641 18.9792 49.6797 20.276 49.7109 22H47.6172C47.7318 20.5729 47.7891 19.1849 47.7891 17.8359C47.7891 17.138 47.6901 16.6406 47.4922 16.3438C47.2995 16.0469 46.8958 15.8984 46.2812 15.8984C45.7135 15.8984 45.2422 16.0885 44.8672 16.4688C44.8932 18.5312 44.9062 20.375 44.9062 22H42.8047C42.8984 20.375 42.9453 19.0938 42.9453 18.1562C42.9453 16.9375 42.8177 15.763 42.5625 14.6328L44.5625 14.4141L44.6953 15.2422H44.8203C45.4974 14.6276 46.2604 14.3203 47.1094 14.3203C48.1719 14.3203 48.9193 14.6276 49.3516 15.2422H49.4766C50.2474 14.6276 51.0104 14.3203 51.7656 14.3203C52.651 14.3203 53.3177 14.513 53.7656 14.8984C54.2188 15.2786 54.4453 15.9714 54.4453 16.9766C54.4453 17.0755 54.4401 17.2656 54.4297 17.5469C54.4193 17.8229 54.4141 18.0104 54.4141 18.1094C54.4141 18.9792 54.4245 20.276 54.4453 22ZM63.7109 18.1172C63.7109 19.4297 63.3073 20.4557 62.5 21.1953C61.6927 21.9349 60.7422 22.3047 59.6484 22.3047C58.6068 22.3047 57.7135 21.9688 56.9688 21.2969C56.224 20.6198 55.8516 19.6693 55.8516 18.4453C55.8516 17.1276 56.2578 16.0964 57.0703 15.3516C57.8828 14.6068 58.8359 14.2344 59.9297 14.2344C60.9661 14.2344 61.8542 14.5755 62.5938 15.2578C63.3385 15.9349 63.7109 16.888 63.7109 18.1172ZM61.6719 18.3516C61.6719 17.5964 61.4948 16.9635 61.1406 16.4531C60.7865 15.9375 60.3255 15.6797 59.7578 15.6797C59.2057 15.6797 58.7552 15.9193 58.4062 16.3984C58.0625 16.8776 57.8906 17.4766 57.8906 18.1953C57.8906 18.9505 58.0677 19.5859 58.4219 20.1016C58.776 20.612 59.237 20.8672 59.8047 20.8672C60.3568 20.8672 60.8047 20.6276 61.1484 20.1484C61.4974 19.6693 61.6719 19.0703 61.6719 18.3516ZM72.9141 13.5L72.7422 14.9531C71.9297 14.9531 71.4219 15.0703 71.2188 15.3047V15.4062C71.526 15.7969 71.6797 16.2344 71.6797 16.7188C71.6797 17.4635 71.4036 18.099 70.8516 18.625C70.3047 19.151 69.487 19.4141 68.3984 19.4141C67.8672 19.4141 67.4323 19.3724 67.0938 19.2891C66.8177 19.4141 66.6797 19.5781 66.6797 19.7812C66.6797 20.099 66.8438 20.3229 67.1719 20.4531C67.5052 20.5781 68.276 20.6406 69.4844 20.6406C71.5729 20.6406 72.6172 21.3516 72.6172 22.7734C72.6172 23.7734 72.1823 24.5677 71.3125 25.1562C70.4427 25.7448 69.3854 26.0391 68.1406 26.0391C65.7031 26.0391 64.4844 25.2734 64.4844 23.7422C64.4844 23.2682 64.6198 22.8646 64.8906 22.5312C65.1667 22.2031 65.4844 22.0026 65.8438 21.9297V21.8125C65.4062 21.5365 65.1875 21.1146 65.1875 20.5469C65.1875 19.974 65.487 19.4948 66.0859 19.1094V19C65.2422 18.5781 64.8203 17.9193 64.8203 17.0234C64.8203 16.2578 65.1094 15.6172 65.6875 15.1016C66.2708 14.5859 67.1693 14.3281 68.3828 14.3281C69.2109 14.3281 69.8828 14.4844 70.3984 14.7969H70.5078C70.6589 13.8125 71.1641 13.3203 72.0234 13.3203C72.362 13.3203 72.6589 13.3802 72.9141 13.5ZM70.6875 23.3516C70.6875 22.9661 70.5391 22.6875 70.2422 22.5156C69.9505 22.3438 69.4453 22.2578 68.7266 22.2578C68.1432 22.2578 67.5547 22.2318 66.9609 22.1797C66.5026 22.4505 66.2734 22.8542 66.2734 23.3906C66.2734 24.3906 66.9401 24.8906 68.2734 24.8906C69.0182 24.8906 69.6068 24.75 70.0391 24.4688C70.4714 24.1875 70.6875 23.8151 70.6875 23.3516ZM69.7656 16.9219C69.7656 16.4531 69.6146 16.0964 69.3125 15.8516C69.0104 15.6068 68.6641 15.4844 68.2734 15.4844C67.8828 15.4844 67.5391 15.6042 67.2422 15.8438C66.9505 16.0781 66.8047 16.4245 66.8047 16.8828C66.8047 17.3464 66.9557 17.6979 67.2578 17.9375C67.5599 18.1771 67.9115 18.2969 68.3125 18.2969C68.6927 18.2969 69.0286 18.1823 69.3203 17.9531C69.6172 17.7188 69.7656 17.375 69.7656 16.9219ZM80.9141 21.9922L79.0859 22.0547C79.0026 21.7734 78.9609 21.5495 78.9609 21.3828H78.8359C78.1536 21.9453 77.3568 22.2266 76.4453 22.2266C75.5859 22.2266 74.9375 22.0026 74.5 21.5547C74.0677 21.1016 73.8516 20.2005 73.8516 18.8516C73.8516 18.6901 73.8542 18.4635 73.8594 18.1719C73.8698 17.8802 73.875 17.625 73.875 17.4062C73.875 16.8281 73.8255 15.9062 73.7266 14.6406L75.9062 14.5625C75.8229 15.5625 75.7812 16.5104 75.7812 17.4062C75.7812 18.6823 75.875 19.5417 76.0625 19.9844C76.2552 20.4271 76.6302 20.6484 77.1875 20.6484C77.7969 20.6484 78.3229 20.5026 78.7656 20.2109C78.7656 17.4714 78.7344 15.612 78.6719 14.6328L80.7812 14.5625C80.7292 15.5469 80.7031 16.8229 80.7031 18.3906C80.7031 19.5521 80.7734 20.7526 80.9141 21.9922ZM84.9219 22H82.7891C82.8672 20.2135 82.9062 18.2786 82.9062 16.1953C82.9062 14.1641 82.8255 12.4375 82.6641 11.0156L84.9219 10.8906C84.8438 12.3646 84.8047 14.1328 84.8047 16.1953C84.8047 18.2891 84.8438 20.224 84.9219 22Z" fill="white"/>
</svg>
